<svg width="100" height="53" viewBox="0 0 100 53" fill="none" xmlns="http://www.w3.org/2000/svg">
<g clip-path="url(#clip0_676_34)">
<path d="M19.5576 7.82153C20.9401 3.27617 25.4091 0.615864 29.9194 0.0586472C33.5169 -0.157848 37.4251 0.404008 40.27 2.79576C42.223 4.29576 42.97 6.74937 43.6457 9.01329C44.7499 9.01329 45.8576 9.03906 46.9648 9.11638C47.1498 6.20401 49.6452 4.00298 52.2339 3.05349C53.8364 2.39885 55.3617 3.31122 56.7643 3.99679C57.9566 3.41947 59.0112 2.32153 60.4498 2.5236C61.6823 2.3839 62.9184 3.56896 64.0895 2.87411C65.8261 1.91019 68.0736 1.61122 69.8122 2.74009C71.6303 3.58958 72.2498 5.65762 72.7236 7.44628C76.373 6.17308 80.7483 5.90504 83.97 8.39988C84.9132 7.98236 85.8468 7.53906 86.7797 7.09061C87.4555 3.97205 90.8823 1.92566 93.9437 2.72978C97.3292 3.45659 99.52 7.72978 97.3205 10.6937C97.8462 12.4978 97.9911 14.4257 97.2993 16.2143C98.6607 17.5648 100.141 19.1989 99.8205 21.2813C100.073 24.1009 97.9849 26.3432 95.8318 27.8272C97.2132 29.9303 96.3622 32.4514 97.1607 34.704C97.6823 36.869 97.2792 39.369 95.538 40.9004C93.1457 43.4576 89.3524 43.0803 86.1921 43.6592C85.6153 43.2875 85.0385 42.9169 84.4617 42.5607C81.2452 44.0751 77.2705 44.354 74.3117 42.1009C73.1468 43.205 71.7452 43.9989 70.2091 44.453C68.6364 46.6117 66.5658 48.7726 63.822 49.2519C61.172 49.3458 59.3267 46.9587 58.8524 44.5571C56.1926 45.3922 53.4509 45.0164 50.8627 44.1236C48.5988 45.9385 45.456 46.154 42.7699 45.2519C41.621 47.4942 40.0024 49.5509 37.6916 50.6793C32.7638 53.1427 25.9911 52.319 22.4545 47.8499C19.5014 44.2056 19.9854 38.5045 23.4648 35.3648C22.9493 34.2365 22.5519 33.0602 22.3364 31.8447C21.6401 31.6385 20.9509 31.4262 20.2638 31.2262C19.604 31.5715 18.9431 31.9169 18.2895 32.2679C14.7993 32.2788 11.2689 31.9226 7.85139 32.8308C6.88748 32.1391 5.73748 31.6143 5.10397 30.5726C4.50603 29.5056 4.62974 28.253 4.59933 27.0824C0.135415 25.7731 -1.31355 19.536 1.7849 16.2267C3.70294 14.1592 6.67614 13.819 9.34109 13.9422C11.0272 13.1226 13.022 12.0246 14.8256 13.2772C17.0895 14.2674 16.7694 17.0762 17.9292 18.871C19.6519 20.02 21.5787 18.4019 23.4354 18.3968C19.6968 16.4406 18.6555 11.6623 19.5576 7.82153Z" fill="#69001F"/>
<path d="M28.5459 3.64742C31.566 2.75051 35.0366 2.81752 37.7928 4.4567C40.7046 6.07525 41.6479 10.3691 39.6531 13.0495C38.8237 14.1526 37.4423 14.5804 36.2299 15.1005C37.7093 19.0026 39.9928 23.4253 44.2923 24.684C46.7763 25.3598 48.7263 22.9062 51.1371 23.1376C52.4819 23.1727 52.3794 24.8536 52.4928 25.8118C50.2613 29.2443 45.416 29.8423 41.9314 28.1258C38.4371 26.3376 36.185 22.8273 34.7711 19.2758C34.2093 17.8582 33.7551 16.4088 33.2773 14.9665C33.0546 14.9984 32.601 15.0541 32.3804 15.085C32.4325 15.9407 32.4892 16.8015 32.5505 17.6624C33.0974 17.9093 33.6428 18.1572 34.1938 18.4088C34.0541 19.0428 33.9051 19.6835 33.7459 20.316C32.7469 22.0644 31.2299 23.4706 29.467 24.4289C28.9624 23.949 28.3278 23.5825 27.9974 22.9588C28.4155 21.785 29.3423 20.7954 29.383 19.4948C29.4562 17.2577 29.1407 15.0258 29.182 12.7887C29.2381 11.4588 28.2907 10.4278 27.5892 9.41237C28.6814 7.93814 30.5423 8.19587 32.1551 8.23195C32.316 8.5103 32.4799 8.78865 32.65 9.07216C32.4278 10.2526 32.3309 11.4474 32.2897 12.6484C33.7593 12.6433 35.5526 12.834 36.5103 11.4474C38.0155 9.767 36.6185 7.15979 34.6752 6.57731C31.685 5.56082 27.3701 6.30412 26.1752 9.6134C26.6752 11.4845 28.5206 12.8299 28.3974 14.866C27.6036 15.1644 26.7634 15.8608 25.8928 15.3866C23.4551 14.1289 22.6247 10.9526 23.4129 8.46391C24.0309 6.03865 26.2216 4.31701 28.5459 3.64742Z" fill="#F9FCFA"/>
<path d="M66.5248 5.29176C67.3186 5.00207 68.1743 5.19382 68.9995 5.21444C69.6959 6.46186 70.1537 8.37423 68.85 9.38454C67.8191 9.78196 66.299 9.71959 65.8299 8.53918C65.0774 7.46702 65.7573 6.13712 66.5248 5.29176Z" fill="#F4FAF9"/>
<path d="M50.9119 8.48247C51.5763 7.06494 53.0614 6.31237 54.4263 5.70927C56.283 9.94123 55.215 14.7299 56.0552 19.168C56.5145 19.7093 57.0449 20.1938 57.5552 20.699C57.5701 20.9768 57.5964 21.5392 57.6114 21.8175C55.8124 22.668 53.7768 22.4464 51.8536 22.3124C51.8377 21.9984 51.8124 21.3634 51.7975 21.0495C52.1634 20.4876 52.5346 19.9258 52.8176 19.3186C52.7449 16.267 52.3284 13.2299 52.3841 10.1742C51.8913 9.62165 50.6078 9.47164 50.9119 8.48247Z" fill="#F8FCF9"/>
<path d="M57.9897 7.57526C59.0557 6.65773 60.1454 5.67835 61.5666 5.38454C62.6702 7.8433 62.4686 10.6062 62.732 13.2351C62.9279 15.5546 62.2475 18.3216 64.1289 20.1165C64.7526 20.1165 65.3763 20.1165 66.0057 20.1165C66.2526 19.8232 66.7434 19.2407 66.9846 18.9521C66.999 17.3948 66.999 15.8387 66.9279 14.2861C66.4691 14.1727 65.5516 13.9521 65.0928 13.8387C65.5258 11.9778 67.1856 10.8851 68.8351 10.2036C69.9593 12.8222 69.4269 15.7448 69.9691 18.4871C70.5196 19.0593 71.0763 19.6314 71.6387 20.2036C71.6181 20.4562 71.5825 20.9515 71.566 21.199C69.9016 21.5098 68.2098 21.6474 66.5196 21.668C65.9934 21.2706 65.4681 20.8892 64.947 20.4974C63.6846 22.8278 60.6124 22.1165 58.5037 21.6572C58.9521 20.4149 59.9882 19.317 59.8186 17.9139C59.716 15.6825 59.5609 13.451 59.4526 11.2191C59.3758 10.683 59.3083 10.1521 59.2511 9.6201C58.1598 9.43041 58.0248 8.49278 57.9897 7.57526Z" fill="#F8FCF9"/>
<path d="M91.0206 6.75567C92.0829 4.73505 95.8917 5.6835 95.335 8.13196C94.634 9.33814 93.2113 8.75051 92.1025 8.81752C93.2979 10.4361 95.5969 11.9206 94.8195 14.2454C93.8969 16.4093 91.1958 16.5856 89.2257 17.235C89.1232 17.4567 88.9159 17.9 88.8128 18.1263C90.9422 19.2191 93.2974 17.5077 95.4376 18.549C96.4793 18.9098 96.8659 20.0289 97.2974 20.9407C96.5654 24.5077 92.5613 25.8938 89.3231 25.6469C87.9469 25.4046 86.1273 25.2088 85.4108 23.8428C84.7665 22.5954 85.9469 21.0644 87.2819 21.3067C88.4469 22.1211 89.452 23.1639 90.7407 23.8021C91.9211 23.3541 94.0551 23.1577 93.6685 21.3943C93.0299 20.5077 91.8386 20.6211 90.8902 20.6985C89.4618 20.8119 88.0293 20.8119 86.5963 20.7804C86.2252 20.4098 85.8587 20.0387 85.4927 19.6727C85.4871 19.1985 85.4871 18.7294 85.4871 18.266C86.0551 17.7454 86.6262 17.2242 87.2087 16.7196C86.5536 15.9722 85.5541 15.3948 85.3788 14.3474C85.0031 13.1825 85.6685 12.101 86.1051 11.0742C87.6778 10.2186 89.3994 9.73917 91.167 9.4969C90.917 8.61598 90.1902 7.53866 91.0206 6.75567Z" fill="#F6FAF7"/>
<path d="M77.2413 11.018C78.4887 10.2345 80.1376 9.18299 81.5758 10.1521C83.133 11.2088 82.917 13.2655 83.0706 14.8995C83.0036 16.2912 84.5026 16.9722 84.6016 18.3222C83.3078 19.6985 82.0191 22.0242 79.7717 21.1933C80.1789 18.4923 80.9109 15.549 79.6325 12.9717C78.8438 13.1737 78.0706 13.384 77.2861 13.5851C77.081 14.6716 76.6944 15.7603 76.8474 16.883C76.982 18.383 78.3789 19.2387 79.0645 20.4804C77.2712 21.3572 75.2717 21.3624 73.3268 21.2536C73.1258 21.0067 72.7186 20.5067 72.5181 20.2588C73.0134 19.7433 73.5139 19.2387 74.0387 18.7531C74.1784 18.3309 74.3284 17.9186 74.4717 17.5C74.2459 16.3866 74.1413 15.2577 74.0794 14.1289C73.6928 14.0567 72.9304 13.9124 72.5438 13.8402C72.5542 13.0464 72.749 12.2881 73.0387 11.5619C73.9201 10.9691 74.7959 10.366 75.698 9.79278C76.2541 10.4227 76.6351 11.1588 77.0067 11.9165C77.0665 11.6938 77.1856 11.2454 77.2413 11.018Z" fill="#F8FBF9"/>
<path d="M88.1743 13.1423C88.5666 11.6783 90.2681 11.7773 91.4521 11.967C91.8336 12.5505 92.1434 13.168 92.3697 13.8392C91.5398 14.3392 90.6532 14.7206 89.7604 15.0866C89.1387 14.5753 87.6748 14.266 88.1743 13.1423Z" fill="#69001F"/>
<path d="M43.1386 12.482C45.402 11.3696 48.4948 12.1273 49.6788 14.4356C50.7459 16.7613 50.8031 19.8634 48.8701 21.7552C47.4526 23.3222 45.0304 23.1469 43.1649 22.6933C39.2371 20.9717 39.185 14.2144 43.1386 12.482Z" fill="#F8FBF6"/>
<path d="M43.7726 15.1629C44.8767 13.9268 47.1752 14.7247 47.37 16.3433C47.5345 17.6784 47.7922 19.5186 46.3391 20.2711C45.3231 20.4108 43.9582 20.534 43.4829 19.3845C42.8597 18.1108 42.7371 16.2397 43.7726 15.1629Z" fill="#69001F"/>
<path d="M11.4788 17.0959C12.2206 16.267 13.1391 15.735 14.2783 15.9619C14.2726 16.9 14.418 18.0134 13.5051 18.601C12.6958 18.7969 11.8654 18.8124 11.0458 18.8856C11.1639 20.8536 11.1386 22.8278 11.3087 24.7923C11.6597 25.2304 12.0149 25.6742 12.3711 26.1216C11.3963 27.4423 10.3969 29.1789 8.48448 29.0299C8.82469 26.9356 9.97469 24.5809 8.55716 22.6381C7.72211 23.9417 5.52623 23.7515 4.70201 22.5412C3.52159 21.1959 3.7685 18.8247 5.28448 17.8191C7.07675 16.518 9.43242 17.3175 11.4788 17.0959Z" fill="#F2FAF9"/>
<path d="M5.8551 21.1572C6.07211 20.3232 5.93242 19.2036 6.91747 18.8485C7.58242 18.7088 8.2582 18.6423 8.94376 18.6423C8.99015 19.6474 9.05716 20.6577 9.14943 21.6732C8.11335 21.168 6.96335 21.2345 5.8551 21.1572Z" fill="#030408"/>
<path d="M13.5051 18.6005C13.8809 18.7402 14.633 19.0139 15.0155 19.1479C15.2062 20.2201 15.2175 21.318 15.3 22.4108C16.4598 21.8222 17.651 21.6113 18.7938 22.3644C18.9118 23.3593 19.016 24.3531 19.0928 25.3546C19.4062 25.7964 19.7263 26.2459 20.0469 26.6984C19.4701 27.3753 18.8763 28.0345 18.2536 28.6727C17.882 28.6 17.1464 28.4562 16.7742 28.3835C17.3155 26.8835 17.7319 25.1366 16.7278 23.7191C16.2479 23.8887 15.7938 24.1196 15.3423 24.3474C15.3531 25.0644 15.3825 25.7912 15.435 26.5129C15.8005 27.1108 16.182 27.7036 16.584 28.285C15.3572 28.4551 14.1206 28.5634 12.883 28.5897C12.8567 28.3933 12.8057 27.9974 12.7799 27.7954C13.0995 27.3067 13.4191 26.8263 13.7232 26.3381C13.3474 24.7557 13.3722 23.1216 13.368 21.5077C11.5309 21.0804 13.1598 19.5954 13.5051 18.6005Z" fill="#F2F9F8"/>
<path d="M22.0712 21.735C23.6495 21.4222 25.8145 21.5598 26.1841 23.5134C26.8026 25.7397 23.8335 25.4619 22.4418 25.5232C22.515 25.749 22.664 26.2026 22.7408 26.4304C23.9325 26.4052 25.0284 25.8794 26.2047 25.7448C26.6021 28.5598 21.7207 28.9876 20.9573 26.4876C20.0253 24.8067 20.7681 22.9459 22.0712 21.735Z" fill="#F1FBF9"/>
<path d="M32.6742 26.4871C33.7515 26.6469 34.7252 25.2655 35.7407 26.0479C37.1232 27.2077 37.9629 29.0582 37.8964 30.8686C37.4422 31.2443 36.9211 31.5129 36.4113 31.7964C35.1118 30.7129 33.8077 29.5799 32.1907 29.0237C31.5608 29.2495 30.9278 29.4768 30.3041 29.7088C30.2216 30.482 29.3608 31.5186 30.4072 31.9809C33.0871 33.5335 36.3608 33.8789 38.8149 35.8943C40.268 37.8381 40.7742 40.2603 40.5417 42.651C38.9953 48.5943 30.6716 50.2077 26.3825 46.2701C23.7015 44.0588 23.6763 38.9711 26.9031 37.2433C28.5933 36.1979 31.0629 36.2124 32.3469 37.8876C32.1098 38.4505 31.8788 39.0165 31.6464 39.5835C30.4974 39.9763 29.0902 40.0371 28.2959 41.068C27.8984 42.5216 28.4871 44.2552 29.951 44.8526C31.8892 45.7072 34.517 45.5113 36.0489 43.9505C37.7799 41.9763 37.2608 38.5175 34.9144 37.2552C32.6108 36.0335 29.9247 35.6108 27.7505 34.1263C26.0438 32.9459 25.7505 30.4098 26.9835 28.7876C28.1752 26.8897 30.5412 26.199 32.6742 26.4871Z" fill="#F8FCF9"/>
<path d="M86.5871 29.0753C87.9938 27.8186 90.1072 29.0753 91.5453 27.8794C91.8087 27.8794 92.3391 27.8742 92.6025 27.8742C93.3025 28.9783 93.8443 30.1783 94.2834 31.4206C92.7886 32.766 91.267 31.3897 89.9484 30.5598C89.7113 30.5917 89.2273 30.6417 88.9901 30.6732C88.9845 31.0753 88.9793 31.4825 88.9845 31.8948C90.6804 32.668 92.7535 32.8639 94.0979 34.267C95.1236 35.3598 94.3917 36.8443 94.0927 38.0923C92.7371 39.2572 91.0051 39.5768 89.2685 39.2665C88.6448 39.5711 87.9855 40.1686 87.2474 39.8552C86.0206 38.8242 85.2267 37.3036 85.2793 35.6845C87.1505 34.7005 88.5943 36.5253 90.2582 37.0912C91.4855 37.5861 91.2128 36.066 91.3566 35.4052C89.6082 34.8433 87.836 34.3216 86.1963 33.483C86.0113 33.184 85.6396 32.5866 85.4551 32.2881C85.4329 31.1211 85.6644 29.8742 86.5871 29.0753Z" fill="#F7FAF9"/>
<path d="M66.1587 30.8119C67.5871 29.9665 69.3453 29.049 70.9793 29.9665C74.1278 31.7387 74.5103 36.518 72.4788 39.2799C71.4742 40.8624 69.0963 41.3309 67.5969 40.1928C66.7154 39.7392 66.6427 38.2948 67.4324 37.7237C68.1701 37.6155 68.9226 37.5691 69.6793 37.5799C70.8804 36.4253 71.1902 34.817 70.4056 33.3273C70.117 33.1258 69.5396 32.7242 69.2515 32.5227C68.1479 32.5335 66.7474 32.8062 66.4932 34.0897C66.3025 35.8113 66.4314 37.5541 66.4989 39.2851C66.4726 40.2804 67.4886 40.7701 67.9479 41.549C68.1855 42.3567 67.4061 42.9098 66.9989 43.4923C66.0036 44.4469 64.9432 45.8479 63.3798 45.4314C62.751 44.0139 63.6376 42.5402 63.5963 41.0912C63.503 38.7655 63.1989 36.4572 63.2618 34.1325C62.7613 33.8892 62.2628 33.6521 61.7716 33.415C61.7252 33.1258 61.6319 32.5485 61.5912 32.2603C62.601 31.1686 63.7046 29.9407 65.2922 29.8186C65.5097 30.065 65.9427 30.5644 66.1587 30.8119Z" fill="#F8FCF9"/>
<path d="M76.4381 30.25C78.5521 28.1149 82.7526 28.5222 84.0768 31.3536C84.5979 32.4515 84.9227 34.3536 83.5407 34.9361C81.8299 35.8273 79.8763 35.5649 78.0309 35.5804C78.0778 35.8433 78.1804 36.3794 78.2325 36.6423C80.2686 38.1474 82.1716 36.0134 84.3 36.0856C84.3412 36.7299 84.4753 37.3851 84.3933 38.0392C83.6309 39.4015 81.9711 39.7253 80.6206 40.2093C78.0582 40.2454 75.4768 38.6021 75.0737 35.9567C74.4794 33.9814 75.0155 31.7448 76.4381 30.25Z" fill="#F8FBF9"/>
<path d="M52.0877 32.1732C53.3872 30.199 56.0882 30.0799 58.1444 30.6794C60.7011 31.6227 61.2016 34.6799 61.1232 37.0701C60.6748 38.467 60.0975 40.0448 58.6748 40.7309C57.2985 41.5356 55.6696 41.2258 54.1588 41.2814C50.8655 39.6572 49.8294 35.0495 52.0877 32.1732Z" fill="#F9FDF8"/>
<path d="M43.1284 31.9613C44.0825 31.116 45.3758 30.9108 46.5557 30.5706C47.6428 30.951 48.8902 31.1686 49.7253 32.0294C50.349 32.8696 50.184 34.1727 49.2041 34.683C47.7974 34.1155 46.4052 33.3593 44.8376 33.6C43.9567 35.1619 43.5639 37.4866 45.2041 38.7021C46.9557 39.5629 48.6062 37.7948 50.415 38.0732C50.45 38.9902 50.8835 40.2433 49.8727 40.8149C48.5021 42.1242 46.4552 42.2005 44.7036 41.8402C40.8248 40.4361 40.015 34.5289 43.1284 31.9613Z" fill="#F7FCF8"/>
<path d="M78.4123 31.6577C79.7268 31.3588 81.6546 31.0402 81.752 32.9361C80.3665 33.333 78.9319 33.5273 77.4938 33.6005C77.7886 32.9464 78.0974 32.3021 78.4123 31.6577Z" fill="#03080A"/>
<path d="M54.6954 33.132C55.5712 32.7299 56.5407 33.018 57.4536 33.1371C58.1299 34.4366 58.6655 35.9407 58.0722 37.3897C57.5361 39.1783 54.6078 39.2196 54 37.4361C53.7882 36.0026 53.4794 34.2139 54.6954 33.132Z" fill="#69001F"/>
</g>
<defs>
<clipPath id="clip0_676_34">
<rect width="100" height="52.0619" fill="white"/>
</clipPath>
</defs>
</svg>
